<?xml version="1.0" standalone="no"?>
<!DOCTYPE svg PUBLIC "-//W3C//DTD SVG 20010904//EN"
 "http://www.w3.org/TR/2001/REC-SVG-20010904/DTD/svg10.dtd">
<svg version="1.0" xmlns="http://www.w3.org/2000/svg"
 width="500.000000pt" height="500.000000pt" viewBox="0 0 500.000000 500.000000"
 preserveAspectRatio="xMidYMid meet">
<metadata>
Created by potrace 1.14, written by Peter Selinger 2001-2017
</metadata>
<g transform="translate(0.000000,500.000000) scale(0.100000,-0.100000)"
fill="#000000" stroke="none">
<path d="M2475 3884 c-24 -24 -18 -222 8 -238 12 -8 22 -8 35 0 25 16 31 214
7 238 -9 9 -20 16 -25 16 -5 0 -16 -7 -25 -16z"/>
<path d="M1920 3650 c-7 -13 -7 -26 -1 -37 13 -25 147 -153 159 -153 14 0 42
29 42 43 0 19 -153 167 -172 167 -10 0 -22 -9 -28 -20z"/>
<path d="M2957 3592 c-42 -42 -77 -85 -77 -94 0 -24 35 -41 58 -29 24 13 152
147 152 159 0 14 -29 42 -43 42 -7 0 -47 -35 -90 -78z"/>
<path d="M2369 3497 c-119 -41 -199 -112 -253 -226 -29 -62 -31 -73 -31 -176
0 -103 2 -114 31 -175 18 -36 53 -90 78 -120 61 -73 87 -132 94 -208 l5 -62
206 2 206 3 7 63 c8 78 36 137 95 205 25 29 59 81 77 117 29 61 31 72 31 175
0 102 -2 114 -31 175 -96 200 -313 296 -515 227z m255 -78 c109 -40 194 -145
215 -265 20 -108 -11 -209 -93 -304 -56 -65 -82 -111 -100 -183 l-13 -52 -134
0 -133 0 -7 35 c-13 63 -45 124 -99 190 -80 99 -104 158 -105 255 0 71 4 88
33 147 39 80 111 148 185 177 71 27 179 28 251 0z"/>
<path d="M2486 3265 c-3 -8 -15 -15 -26 -15 -32 0 -70 -44 -70 -80 0 -45 14
-66 60 -84 38 -15 40 -18 40 -61 0 -25 -3 -45 -8 -45 -4 0 -24 9 -44 20 l-37
20 -12 -22 c-13 -24 -1 -35 61 -54 24 -7 36 -18 38 -32 4 -27 32 -29 32 -3 0
13 11 23 35 31 91 30 86 134 -7 169 -24 9 -28 16 -28 52 0 43 3 45 52 24 11
-4 20 0 28 15 10 19 7 22 -34 41 -26 11 -46 24 -46 29 0 16 -27 11 -34 -5z m4
-95 c0 -44 -21 -55 -40 -21 -13 25 -13 27 6 45 25 25 34 19 34 -24z m61 -120
c21 -12 25 -40 7 -58 -24 -24 -38 -13 -38 28 0 43 2 45 31 30z"/>
<path d="M1708 3119 c-10 -5 -18 -18 -18 -27 0 -35 21 -42 130 -42 105 0 130
7 130 36 0 34 -30 44 -128 44 -53 0 -105 -5 -114 -11z"/>
<path d="M3066 3114 c-9 -8 -16 -21 -16 -28 0 -29 25 -36 130 -36 105 0 130 7
130 36 0 34 -30 44 -130 44 -76 0 -102 -4 -114 -16z"/>
<path d="M1993 2638 c-73 -73 -83 -94 -61 -116 23 -23 44 -12 117 62 56 57 72
79 69 97 -2 17 -10 25 -28 27 -20 2 -41 -13 -97 -70z"/>
<path d="M2881 2693 c-14 -25 7 -58 77 -125 60 -58 87 -69 110 -46 22 22 13
39 -60 114 -74 76 -107 91 -127 57z"/>
<path d="M2299 2454 c-9 -11 -10 -20 -2 -32 9 -15 36 -17 199 -20 167 -2 190
0 201 14 9 12 9 22 2 35 -9 18 -25 19 -198 19 -160 0 -191 -2 -202 -16z"/>
<path d="M2382 2338 c-16 -16 -15 -33 4 -52 12 -12 38 -16 114 -16 76 0 102 4
114 16 19 18 19 20 6 45 -10 17 -22 19 -118 19 -71 0 -112 -4 -120 -12z"/>
<path d="M2641 2082 c-54 -27 -73 -61 -78 -139 -6 -87 22 -148 79 -176 72 -35
166 12 188 94 15 54 6 79 -28 79 -15 0 -43 3 -63 6 -26 4 -40 2 -53 -11 -24
-24 -4 -45 45 -45 45 0 50 -14 18 -54 -58 -74 -159 30 -129 133 20 71 71 90
135 51 30 -19 34 -19 49 -5 23 23 6 49 -44 69 -52 20 -77 20 -119 -2z"/>
<path d="M1684 2077 c-2 -7 -3 -80 -2 -162 l3 -150 87 0 c78 0 89 2 112 24 21
20 26 34 26 72 0 26 -5 51 -10 54 -7 4 -8 24 -4 51 9 60 -1 91 -36 109 -37 19
-168 21 -176 2z m144 -53 c12 -8 22 -21 22 -29 0 -21 -41 -45 -77 -45 -32 0
-33 2 -33 38 0 21 3 42 7 45 12 12 58 7 81 -9z m13 -134 c21 -12 25 -40 7 -58
-7 -7 -34 -12 -60 -12 l-48 0 0 40 0 40 41 0 c22 0 49 -5 60 -10z"/>
<path d="M1977 2084 c-12 -12 -7 -226 6 -264 25 -74 135 -92 190 -30 27 30 27
32 27 165 l0 135 -30 0 -29 0 -3 -132 -3 -133 -27 -9 c-22 -8 -32 -6 -47 8
-18 16 -21 33 -23 140 l-3 121 -25 3 c-14 2 -29 0 -33 -4z"/>
<path d="M2276 2074 c-8 -21 -6 -253 3 -284 6 -23 12 -25 66 -28 75 -3 118 21
145 81 38 82 16 203 -41 232 -40 21 -165 20 -173 -1z m149 -59 c21 -20 25 -34
25 -85 0 -75 -27 -110 -85 -110 l-35 0 0 110 0 110 35 0 c25 0 44 -8 60 -25z"/>
<path d="M2900 2088 c-1 -2 -3 -71 -7 -153 -5 -128 -3 -152 10 -163 19 -16
189 -12 194 4 2 7 -4 19 -13 29 -13 13 -31 16 -76 13 l-58 -3 0 43 c0 40 2 42
28 40 15 -1 42 -1 60 0 28 2 33 5 30 25 -3 19 -10 22 -60 25 l-58 3 0 39 0 39
73 3 c70 3 72 4 75 31 l3 27 -100 0 c-56 0 -101 -1 -101 -2z"/>
<path d="M3130 2065 c0 -21 6 -26 40 -31 l40 -7 0 -134 0 -134 28 3 27 3 -2
133 -2 132 33 0 c37 0 62 21 52 45 -4 12 -26 15 -111 15 l-105 0 0 -25z"/>
<path d="M2993 1517 c27 -42 30 -83 8 -132 -22 -49 -12 -61 16 -19 23 35 22
111 -1 147 -10 15 -23 27 -28 27 -6 0 -4 -10 5 -23z"/>
<path d="M1970 1440 l0 -80 39 0 c51 0 62 16 58 85 -4 63 -14 75 -64 75 l-33
0 0 -80z m70 30 c0 -15 -7 -20 -25 -20 -18 0 -25 5 -25 20 0 15 7 20 25 20 18
0 25 -5 25 -20z m8 -62 c3 -14 -3 -18 -27 -18 -25 0 -31 4 -31 21 0 16 5 20
27 17 17 -2 29 -10 31 -20z"/>
<path d="M2133 1504 c-8 -22 4 -113 18 -130 14 -17 61 -18 77 -2 17 17 16 151
0 145 -9 -3 -12 -22 -10 -59 2 -40 -1 -58 -13 -68 -27 -23 -45 5 -45 71 0 56
-13 78 -27 43z"/>
<path d="M2310 1440 l0 -80 34 0 c49 0 80 40 73 95 -7 46 -28 65 -74 65 l-33
0 0 -80z m78 -3 c-3 -37 -6 -42 -30 -45 -27 -3 -28 -2 -28 47 0 52 11 65 43
49 14 -7 17 -19 15 -51z"/>
<path d="M2484 1506 c-3 -7 -4 -42 -2 -77 3 -64 3 -64 35 -67 45 -4 73 26 73
78 0 27 -7 47 -20 60 -23 23 -78 27 -86 6z m82 -50 c8 -31 -11 -66 -36 -66
-17 0 -20 7 -20 48 0 27 3 52 6 55 12 11 44 -13 50 -37z"/>
<path d="M2640 1513 c0 -5 9 -21 20 -38 12 -18 20 -47 20 -72 0 -32 4 -43 15
-43 11 0 15 11 15 38 0 24 9 51 26 75 31 47 22 64 -12 22 l-25 -30 -20 28
c-20 26 -39 36 -39 20z"/>
<path d="M2905 1470 c-3 -6 1 -13 10 -16 19 -8 30 0 20 15 -8 14 -22 14 -30 1z"/>
<path d="M2905 1381 c-7 -12 12 -24 25 -16 11 7 4 25 -10 25 -5 0 -11 -4 -15
-9z"/>
</g>
</svg>
